<svg width="315" height="70" viewBox="0 0 315 70" fill="none" xmlns="http://www.w3.org/2000/svg">
<path d="M1 7.32911C8.13603 7.32911 23.112 8.38511 30.572 13.3091C32.2606 14.4236 32.984 15.3131 33.92 15.5891C34.856 15.8651 35.912 15.6011 36.852 14.9371C41.1678 11.8885 44.184 7.3451 47.916 4.27309C50.5402 2.113 54.848 1.7371 57.78 1.06509C61.7267 0.160534 61.784 8.9131 66.048 12.7811C71.3074 17.552 82.008 20.0971 89.516 23.5851C91.2732 24.4014 90.064 27.5851 92.444 29.1851C102.009 35.6156 108.712 30.8011 112.32 28.2731C113.264 27.6119 114.312 27.0731 115.252 27.3291C121.348 28.9892 129.24 32.1291 136.708 35.3131C138.298 35.991 138.328 37.4411 139.124 37.8531C143.164 39.9439 147.912 35.8731 151.652 32.1451C156.469 27.3435 163.624 23.3451 173.632 21.0691C176.705 20.3702 180.176 19.8651 204.236 18.8051C225.92 18.0091 266.84 16.6891 288.712 15.8771C310.584 15.0651 312.168 14.8011 313.8 13.7291" stroke="#C8A646" stroke-width="2" stroke-linecap="round"/>
<path d="M205.798 18.3575C207.718 18.3575 212.56 17.9741 219.519 13.5837C222.011 12.0116 225.041 9.56213 230.733 6.56739C237.75 2.87531 243.068 2.28587 245.139 2.14063C251.189 1.71634 252.749 2.76514 255.443 3.97495C257.726 5.00023 263.014 4.31625 267.596 4.17392C276.121 3.90914 281.5 2.77387 283.533 2.67075C284.224 4.29301 284.32 6.15201 284.609 7.26306C284.802 7.79898 285.09 8.27825 285.967 8.48158" stroke="#C8A646" stroke-width="2" stroke-linecap="round"/>
<path d="M253.144 17.4861C255.924 18.7322 258.704 19.9784 263.682 22.2019C268.661 24.4255 275.754 27.5887 280.079 29.6975C284.404 31.8063 285.746 32.7648 288.019 36.1822C290.292 39.5996 293.455 45.4467 295.564 49.6571C298.632 56.2638 299.907 60.2665 300.343 63.3571C300.491 64.914 300.491 66.4477 300.491 68.0278" stroke="#C8A646" stroke-width="2" stroke-linecap="round"/>
<path d="M292.067 42.4665C291.588 43.3321 290.04 45.8418 289.213 49.2286C288.104 53.7749 288.581 57.1585 289.448 60.3217C289.61 60.9115 290.028 61.2425 290.08 61.6317C290.133 62.0209 289.941 62.4043 289.65 62.6977C288.431 63.9291 286.171 63.8625 284.184 64.2024C282.021 64.5723 279.304 61.4632 277.162 58.5963C276.018 57.066 274.935 55.3517 273.001 53.3664C271.352 51.6743 268.641 52.3425 267.819 52.5342C266.703 53.8878 265.254 55.0497 263.662 55.7265C262.741 56.0198 261.591 56.2115 259.534 56.4091" stroke="#C8A646" stroke-width="2" stroke-linecap="round"/>
</svg>
