<svg width="204" height="131" viewBox="0 0 204 131" fill="none" xmlns="http://www.w3.org/2000/svg">
<path d="M88.4635 81.1799C89.2031 80.2498 91.814 78.0199 93.6853 75.0281C95.6694 71.8559 97.7865 69.7951 101.151 66.6267C102.808 65.0661 103.585 63.2566 104.703 62.1389C107.687 60.4497 113.642 59.3403 118.517 58.1189C119.458 57.8388 120.198 57.469 122.08 56.5277" stroke="#C8A646" stroke-width="2" stroke-linecap="round"/>
<path d="M106.392 61.5702C105.832 60.2704 105.462 56.9199 103.507 53.83C101.438 50.5608 97.0694 50.3647 92.3126 47.6697C85.8731 44.0214 80.261 40.6607 77.2692 38.6072C74.1857 36.4909 69.8175 32.2789 66.1561 29.0825C62.3615 25.7699 55.2391 23.6619 51.5917 22.9139C48.3393 22.2469 43.1147 21.6112 29.5952 20.4907C17.3531 12.4955 6.49497 3.1221 3.22015 2.09118C2.37693 1.81105 1.45247 1.44127 0.5 0.5" stroke="#C8A646" stroke-linecap="round"/>
<path d="M117.598 58.7688C119.083 59.8838 122.808 61.3797 136.216 61.7551C145.853 62.0249 149.142 65.1 154.834 69.3048C159.321 72.6195 160.549 75.9357 162.227 83.2053C163.22 87.5099 163.541 93.831 164.748 101.327C165.381 105.26 168.751 108.981 172.491 113.194C174.354 115.334 176.046 117.957 177.259 120.567C177.732 121.699 177.917 122.439 178.108 123.201" stroke="#C8A646" stroke-linecap="round"/>
<path d="M122.758 56.183C123.069 55.9364 123.812 55.1889 124.934 54.6283C126.556 53.8173 127.426 53.1969 128.392 52.4485C129.821 51.3398 131.848 50.8274 134.862 48.7794C137.345 47.0921 140.38 45.2214 142.522 44.4459C147.834 42.5231 150.59 42.2353 152.216 41.3299C153.301 40.7258 154.705 40.0527 156.416 39.5229C158.594 38.8484 161.18 38.9913 163.046 38.9605C164.421 38.9377 165.854 38.8044 170.923 38.7428C175.13 38.6916 182.653 38.5578 187.484 38.2167C194.27 37.7378 196.629 36.5639 197.499 36.2528C199.121 35.9398 200.364 35.8146 201.453 35.7529C201.924 35.6912 202.233 35.5679 202.55 35.4408" stroke="#C8A646" stroke-linecap="round"/>
<path d="M108.93 61.4153C109.241 62.4038 109.491 64.6481 109.646 66.6653C109.904 70.0201 109.801 73.2402 109.988 75.136C110.156 76.8397 110.113 78.1044 110.237 80.3C110.511 85.1412 110.487 88.8174 110.704 89.8115C111.188 92.0322 114.024 95.1522 116.08 99.751C117.879 103.775 116.84 106.633 116.934 108.674C117.146 113.3 116.719 116.601 116.037 117.406C113.853 119.985 112.735 121.456 111.241 122.982C110.08 124.169 108.874 125.44 107.534 126.969C107.065 127.622 106.69 128.125 106.194 128.652C105.883 128.994 105.451 129.487 105.006 129.995" stroke="#C8A646" stroke-linecap="round"/>
<path d="M88.5619 80.6625C85.4505 80.4757 84.3312 80.7223 82.2533 81.0045C78.9793 81.4491 75.4326 80.8513 73.1613 80.571C71.8217 80.4057 70.6301 80.3524 69.2931 80.1038C68.2526 79.9104 65.2914 79.4199 60.1965 78.9527C52.25 78.8555 51.5025 79.0424 49.2171 79.1358C47.1784 79.1676 43.3551 79.1676 39.416 79.1676" stroke="#C8A646" stroke-linecap="round"/>
<path d="M88.9356 80.8494C88.5021 81.3465 87.3846 82.2136 87.0053 84.0505C86.7594 85.2409 86.2597 86.2013 86.1634 87.6644C86.2559 88.2568 86.3811 89.0659 86.4746 90.061C86.5063 90.5011 86.5063 90.8094 86.3195 91.314" stroke="#C8A646" stroke-linecap="round"/>
<path d="M107.037 59.9153C107.037 59.4064 107.182 58.2393 107.438 53.425C107.49 52.4398 108.933 52.6759 110.724 52.1307C113.306 51.3449 111.495 45.5154 112.299 44.3439C113.467 43.0276 114.714 41.8561 115.187 41.3088C115.444 41.051 115.734 40.8338 116.251 40.6101" stroke="#C8A646" stroke-width="0.5" stroke-linecap="round"/>
<path d="M139.286 44.9428C138.777 44.3636 137.61 42.4638 133.637 38.4876C130.375 35.2233 127.602 34.7856 126.526 33.5757C125.724 32.6742 127.804 31.4203 127.806 29.7026C127.808 28.3463 126.931 27.2521 126.527 26.0445C126.072 24.6826 125.614 23.5227 124.192 19.6924C123.787 18.9114 123.425 18.7666 123.094 18.6196C122.762 18.4726 122.473 18.3278 121.736 17.9593" stroke="#C8A646" stroke-width="0.5" stroke-linecap="round"/>
<path d="M151.571 66.4418C150.338 66.659 145.53 67.3895 142.84 67.8656C141.504 68.1021 140.315 69.1424 139.475 70.0912C138.855 70.7915 138.847 73.802 138.775 78.1116C138.729 80.8369 138.409 84.8389 138.481 89.9888C138.546 94.6065 139.137 95.9043 141.688 100.172C142.304 101.202 142.787 101.678 142.794 102.229C142.366 103.359 141.774 104.245 141.446 104.792C141.263 105.05 141.045 105.267 140.822 105.491" stroke="#C8A646" stroke-width="0.5" stroke-linecap="round"/>
<path d="M77.6408 38.6905C77.0595 38.4009 75.6006 37.0891 70.0591 35.0774C68.7022 34.5848 67.7864 34.7417 67.3388 35.8276C66.0859 38.8679 66.7465 42.047 66.4909 44.1574C65.7935 49.9163 65.7242 51.2609 65.3568 52.5793C64.8755 54.3062 64.5527 56.0872 64.2599 57.5153C64.114 58.1362 63.967 58.8689 63.7849 59.6718C63.6752 60.0404 63.5304 60.33 63.1619 60.6283" stroke="#C8A646" stroke-width="0.5" stroke-linecap="round"/>
<path d="M66.8913 41.1037C66.7465 41.1037 63.8485 40.5969 58.5571 39.8291C54.1012 39.1825 51.5392 39.7128 49.8676 40.6199C43.5131 44.0682 41.4522 45.4166 37.5484 45.3826C33.2629 44.4711 29.9042 43.0847 25.9367 41.6631C23.4172 40.8931 19.8698 40.0243 16.215 39.1293" stroke="#C8A646" stroke-width="0.5" stroke-linecap="round"/>
<path d="M63.6006 26.515C64.2522 25.7889 66.299 24.0361 67.363 22.8262C68.3209 21.737 69.3703 17.99 69.707 14.786C69.9099 12.8553 69.9604 11.0884 70.4343 10.5772C71.9936 8.89517 77.1099 9.03939 79.4628 7.94579C79.8324 7.65072 80.0496 7.43354 80.3425 7.14067C80.6353 6.8478 80.9973 6.48583 81.3702 6.11288" stroke="#C8A646" stroke-width="0.5" stroke-linecap="round"/>
</svg>
