<svg width="274" height="186" viewBox="0 0 274 186" fill="none" xmlns="http://www.w3.org/2000/svg">
<path d="M186.922 55.6915C186.547 54.3721 185.409 51.3466 184.084 48.3096C182.212 44.0201 183.692 37.6975 184.644 34.5667C185.809 30.7392 186.353 26.1413 185.881 22.7177C185.784 21.2049 185.597 19.6807 185.312 17.605C185.216 16.2799 185.216 14.4031 185.216 12.4695" stroke="#C8A646" stroke-width="2" stroke-linecap="round"/>
<path d="M188.059 54.5541C186.74 55.1171 183.339 56.6356 179.637 56.9228C176.499 57.1661 173.478 56.0782 166.312 54.2754C152.83 50.8835 141.63 53.7977 137.29 53.5134C125.341 52.7303 119.666 52.848 114.525 51.9039C113.012 51.7105 110.76 51.7105 107.817 52.5551C104.874 53.3996 101.308 55.0887 97.6342 56.8289" stroke="#C8A646" stroke-width="2" stroke-linecap="round"/>
<path d="M186.922 55.1228C189.743 55.1228 195.066 55.3105 196.485 56.1579C200.122 58.3301 202.63 62.3113 207.663 65.5387C211.032 67.6994 226.413 70.4552 236.57 71.9908C242.392 72.8708 246.238 75.585 249.469 76.4466C250.982 77.2912 252.506 78.0589 254.018 78.7186C254.78 79.1907 255.531 79.9414 256.305 81.2835" stroke="#C8A646" stroke-width="2" stroke-linecap="round"/>
<path d="M98.7575 56.9095C97.5705 56.9095 94.4686 57.1462 90.8843 58.1001C85.7617 59.4634 82.0466 61.6789 79.1634 62.7637C75.6588 64.0823 72.7085 64.3182 70.4959 64.4993C69.4691 64.5834 61.0646 64.5621 48.6372 64.1443C41.3835 63.9005 38.0458 63.4863 30.664 62.7691C16.7167 61.414 12.1116 64.0744 8.82141 65.0337C6.50304 65.9822 4.6885 66.7101 3.49793 67.1853C2.78072 67.5421 1.834 68.1338 0.5 69.4606" stroke="#C8A646" stroke-linecap="round"/>
<path d="M97.6817 56.5509C98.1586 57.3828 98.6356 59.2906 99.8871 61.0872C101.092 62.8176 103.527 63.4791 106.039 64.7934C108.841 66.2592 110.584 67.3018 114.52 73.8571C116.455 77.0805 118.352 78.6552 125.981 88.9615C130.061 94.4733 131.742 97.8979 133.535 100.349C136.824 104.846 135.93 110.922 136.707 113.678C137.128 121.168 137.01 131.972 136.83 132.986C136.77 133.525 136.77 134.117 136.77 134.727" stroke="#C8A646" stroke-linecap="round"/>
<path d="M256.543 81.2946C256.543 79.1609 257.253 74.6102 258.689 72.3384C260.55 69.3957 262.514 66.3587 263.351 65.2255C263.959 64.4029 262.41 62.7762 260.377 60.1477C258.143 57.2605 256.55 55.4822 254.047 52.6815C252.857 51.43 250.963 49.5366 249.633 47.7328C248.303 45.929 247.592 44.2723 246.861 42.2067" stroke="#C8A646" stroke-linecap="round"/>
<path d="M234.668 71.9708C234.668 73.5129 234.905 77.3356 235.741 79.731C237.368 84.3964 239.567 89.65 240.996 94.8319C242.695 100.992 243.393 106.974 243.75 110.851C244.077 114.407 245.893 120.221 247.745 129.041C249.759 138.63 248.417 145.825 247.94 148.929C247.605 151.113 246.746 154.661 245.733 159.969C244.781 164.959 241.862 171.265 238.457 177.773C236.827 181.56 235.87 183.253 234.737 184.088C234.195 184.451 233.722 184.687 233.234 184.931" stroke="#C8A646" stroke-linecap="round"/>
<path d="M26.6781 62.2885C26.5598 61.4566 25.8461 59.3121 24.5318 57.2753C23.1442 55.1246 20.8328 52.8573 18.5575 50.8796C16.9266 49.462 15.0952 48.1882 12.8198 46.8739C10.9139 45.7731 9.35753 43.4116 7.50174 41.0825C6.72895 40.1878 5.42722 38.886 4.57912 37.9788C3.73102 37.0715 3.376 36.5981 2.65162 35.0346" stroke="#C8A646" stroke-width="0.5" stroke-linecap="round"/>
<path d="M117.405 79.8601C116.573 80.5738 113.955 82.9513 111.913 84.9936C109.756 87.1502 108.447 89.1767 106.297 92.8739C103.771 97.2177 102.229 102.323 101.153 105.19C100.321 106.504 99.4783 107.824 98.6445 109.196C98.1658 109.857 97.5741 110.449 96.6059 111.059" stroke="#C8A646" stroke-width="0.5" stroke-linecap="round"/>
<path d="M243.633 106.755C243.87 106.755 246.004 106.755 249.348 106.933C253.122 107.133 254.865 111.288 258.021 116.111C261.437 121.333 263.35 125.636 265.49 127.242C268.941 129.832 271.601 131.732 272.139 134.522C272.322 140.507 272.44 145.001 272.679 146.193C272.799 146.794 272.917 147.385 273.039 147.995" stroke="#C8A646" stroke-width="0.5" stroke-linecap="round"/>
<path d="M234.668 72.3295C233.481 72.8028 230.616 74.0006 228.223 74.8953C225.405 75.9483 224.513 80.4411 223.08 82.8993C221.38 85.817 219.614 87.2617 218.178 89.7128C216.978 91.4502 216.502 94.3047 214.96 102.067C213.539 103.41 210.699 103.291 207.773 103.169" stroke="#C8A646" stroke-width="0.5" stroke-linecap="round"/>
<path d="M185.898 28.9384C183.635 28.82 181.007 28.5798 174.638 27.9845C167.839 27.349 161.653 28.0992 158.132 28.5762C151.112 29.5269 143.232 30.7314 141.801 30.4355C141.08 30.1397 140.37 29.548 139.886 29.0065C139.402 28.465 139.165 27.9917 137.845 26.7868" stroke="#C8A646" stroke-width="0.5" stroke-linecap="round"/>
<path d="M194.146 54.7579C194.62 53.6892 197.001 50.8275 199.398 48.6688C201.348 46.9124 204.287 43.426 209.785 39.4096C212.932 37.1101 217.197 36.7129 221.384 36.0531C225.228 35.4472 227.012 35.2749 228.205 34.9181C228.824 34.7328 229.397 34.3246 233.607 29.4081C237.817 24.4917 245.627 15.0245 249.651 9.91084C253.674 4.79715 253.674 4.32379 253.852 3.66575C254.029 3.00771 254.384 2.17934 254.75 0.250046" stroke="#C8A646" stroke-width="0.5" stroke-linecap="round"/>
</svg>
