<svg width="339" height="75" viewBox="0 0 339 75" fill="none" xmlns="http://www.w3.org/2000/svg">
<path d="M168.892 6.89043C169.763 9.01667 169.955 10.7537 170.006 14.3802C170.039 16.7727 169.571 18.6951 169.231 20.2462C168.895 21.7796 168.026 23.1509 166.574 24.5074C164.864 26.1042 161.833 27.0258 159.894 27.7534C158.012 28.4599 155.832 28.8674 154.036 29.4483C153.158 29.7319 152.05 29.7388 148.159 30.0292C138.83 30.7257 131.912 30.2238 130.704 30.3691C128.821 30.5954 125.728 30.709 122.331 31.1911C120.207 31.4926 117.688 31.5803 114.157 32.1569C104.771 33.6898 99.3822 37.0935 97.1558 38.1116C93.8594 39.6189 92.3122 40.5791 90.7132 41.4055C87.5976 43.0156 82.3433 44.4539 77.1729 45.3747C74.9262 45.7749 71.7034 45.8104 66.4459 46.2462C63.3999 46.4986 59.5589 46.3943 55.7145 46.6339C48.1125 47.1078 43.8009 47.9425 42.883 48.1836C40.0175 48.9363 36.8325 52.0062 34.32 53.5035C29.2054 56.5516 24.6328 57.5251 23.0338 57.9143C20.1567 58.6146 17.6615 61.8763 17.2186 63.8152C16.7914 65.6848 14.7626 67.7787 11.7606 70.0109C7.4951 72.2432 4.59621 73.2104 2.45981 73.697C1.97327 73.7943 1.494 73.8901 1.0002 73.9889" stroke="#C8A646" stroke-width="2" stroke-linecap="round"/>
<path d="M65.194 45.5229C64.9064 44.6573 63.7474 42.3393 62.4882 40.688C60.6639 38.2955 59.1057 35.2751 57.8872 32.8468C57.6428 32.3597 57.3571 31.9754 56.9693 31.6341C54.1345 29.139 47.6787 30.5172 45.4537 30.2268C40.6273 29.5967 37.4251 28.5827 34.2212 26.9401C31.7493 25.6728 30.6339 24.3244 28.5556 23.3049C26.3315 22.2138 24.7257 24.2198 23.7614 24.2707C18.0739 24.5705 13.2028 17.0598 12.6713 16.3365C10.4866 13.3639 11.1724 8.05812 10.2981 6.50992C10.1035 6.02483 9.9118 5.4497 8.47107 4.43451C7.03034 3.41932 4.3464 1.98149 1.58113 0.500099" stroke="#C8A646" stroke-linecap="round"/>
<path d="M111.379 33.0327C111.379 33.8983 111.57 35.8328 112.102 37.336C112.764 39.2075 115.242 40.4803 117.663 41.4534C120.022 42.4015 124.519 43.5767 132.072 45.565C135.52 46.4728 138.851 46.3943 145.096 47.0682C150.781 48.1371 153.288 48.3288 155.186 48.8604C155.527 49.1015 155.815 49.4849 156.111 49.8799" stroke="#C8A646" stroke-linecap="round"/>
<path d="M171.506 17.0569C172.662 17.2486 174.596 18.2129 176.148 19.1352C176.953 19.614 177.603 20.2491 178.805 20.9724C181.075 22.3378 184.56 22.9592 193.452 24.1153C200.601 25.0446 213.177 26.0382 222.377 27.3976C231.578 28.757 237.042 30.2907 240.527 31.3683C244.013 32.446 245.355 33.0211 250.024 34.8031C254.693 36.5851 262.649 39.5566 268.713 42.2377C274.776 44.9187 278.707 47.2192 281.929 48.8357C287.419 51.5893 290.688 52.2995 292.088 52.5886C296.459 53.4908 302.586 53.1738 309.755 50.7746C315.102 48.567 323.921 44.3494 329.279 41.6495C334.636 38.9496 336.266 37.8951 337.945 36.5183" stroke="#C8A646" stroke-linecap="round"/>
</svg>
